<?xml version="1.0" standalone="no"?><!DOCTYPE svg PUBLIC "-//W3C//DTD SVG 1.1//EN" "http://www.w3.org/Graphics/SVG/1.1/DTD/svg11.dtd"><svg t="1749638157885" class="icon" viewBox="0 0 1024 1024" version="1.1" xmlns="http://www.w3.org/2000/svg" p-id="9032" xmlns:xlink="http://www.w3.org/1999/xlink" width="200" height="200"><path d="M680.96 479.573333l-155.306667-102.4c-27.306667-17.066667-49.493333-5.12-49.493333 25.6v215.04c0 32.426667 22.186667 44.373333 49.493333 25.6l155.306667-100.693333c27.306667-17.066667 27.306667-44.373333 0-63.146667z" fill="#333333" opacity=".3" p-id="9033"></path><path d="M503.466667 679.253333c-8.533333 0-15.36-1.706667-23.893334-5.12-17.066667-10.24-27.306667-29.013333-27.306666-54.613333V404.48c0-25.6 10.24-44.373333 27.306666-54.613333 17.066667-10.24 39.253333-6.826667 59.733334 6.826666l155.306666 102.4c20.48 13.653333 32.426667 32.426667 32.426667 52.906667 0 20.48-11.946667 40.96-32.426667 52.906667L539.306667 665.6c-11.946667 8.533333-23.893333 13.653333-35.84 13.653333z m0-283.306666c0 1.706667-1.706667 3.413333-1.706667 8.533333v215.04c0 5.12 0 6.826667 1.706667 8.533333 1.706667 0 3.413333-1.706667 8.533333-3.413333l155.306667-100.693333c6.826667-3.413333 8.533333-8.533333 8.533333-10.24 0-1.706667-1.706667-6.826667-8.533333-10.24l-155.306667-102.4c-3.413333-3.413333-6.826667-5.12-8.533333-5.12z" fill="#333333" opacity=".3" p-id="9034"></path><path d="M860.16 851.626667H163.84c-71.68 0-129.706667-58.026667-129.706667-129.706667V196.266667c0-71.68 58.026667-129.706667 129.706667-129.706667h696.32c71.68 0 129.706667 58.026667 129.706667 129.706667v525.653333c0 71.68-58.026667 129.706667-129.706667 129.706667zM163.84 117.76C121.173333 117.76 85.333333 153.6 85.333333 196.266667v525.653333c0 42.666667 35.84 78.506667 78.506667 78.506667h696.32c42.666667 0 78.506667-35.84 78.506667-78.506667V196.266667c0-42.666667-35.84-78.506667-78.506667-78.506667H163.84zM793.6 957.44h-563.2c-13.653333 0-25.6-11.946667-25.6-25.6s11.946667-25.6 25.6-25.6h564.906667c13.653333 0 25.6 11.946667 25.6 25.6s-11.946667 25.6-27.306667 25.6z" fill="#333333" p-id="9035"></path><path d="M419.84 636.586667c-8.533333 0-17.066667-1.706667-23.893333-5.12-18.773333-10.24-29.013333-30.72-29.013334-56.32V344.746667c0-25.6 10.24-46.08 29.013334-56.32 18.773333-10.24 40.96-6.826667 63.146666 6.826666l165.546667 109.226667c20.48 13.653333 32.426667 34.133333 32.426667 56.32s-11.946667 42.666667-32.426667 56.32l-165.546667 109.226667c-13.653333 6.826667-27.306667 10.24-39.253333 10.24z m0-303.786667s-1.706667 3.413333-1.706667 11.946667v230.4c0 6.826667 1.706667 11.946667 1.706667 11.946666l10.24-5.12 165.546667-109.226666c6.826667-3.413333 10.24-8.533333 10.24-11.946667 0-3.413333-3.413333-8.533333-10.24-13.653333l-165.546667-109.226667c-5.12-3.413333-10.24-5.12-10.24-5.12z" fill="#333333" p-id="9036"></path></svg>