<?xml version="1.0" standalone="no"?><!DOCTYPE svg PUBLIC "-//W3C//DTD SVG 1.1//EN" "http://www.w3.org/Graphics/SVG/1.1/DTD/svg11.dtd"><svg t="1749638386919" class="icon" viewBox="0 0 1024 1024" version="1.1" xmlns="http://www.w3.org/2000/svg" p-id="21830" xmlns:xlink="http://www.w3.org/1999/xlink" width="200" height="200"><path d="M660.8 587.8c17.3 8.6 38.3 1.5 46.9-15.8 8.6-17.3 1.5-38.3-15.8-46.9-15.9-7.9-32.5-14.9-49.3-20.8l-3.6-1.2c58.9-43.5 97.2-113.4 97.2-192.2 0-131.6-107.1-238.7-238.7-238.7C366 72.2 258.9 179.3 258.9 311c0 78.7 38.2 148.5 97.1 192.1-62.3 21.3-119.5 56.7-167.4 104.6-82.5 82.5-128 192.3-128 309 0 19.3 15.7 35 35 35s35-15.7 35-35c0-98 38.2-190.2 107.5-259.5 69.3-69.3 161.5-107.5 259.5-107.5 41.8 0 82.8 7 121.8 20.7 14.1 4.9 28.1 10.8 41.4 17.4zM497.7 142.2c93 0 168.7 75.7 168.7 168.7 0 93-75.7 168.7-168.7 168.7S328.9 404 328.9 311c0-93.1 75.7-168.8 168.8-168.8zM925.7 737.6H823.5V635.4c0-19.3-15.7-35-35-35s-35 15.7-35 35v102.2H651.3c-19.3 0-35 15.7-35 35s15.7 35 35 35h102.2v102.2c0 19.3 15.7 35 35 35s35-15.7 35-35V807.6h102.2c19.3 0 35-15.7 35-35s-15.7-35-35-35z" p-id="21831"></path></svg>