<?xml version="1.0" standalone="no"?><!DOCTYPE svg PUBLIC "-//W3C//DTD SVG 1.1//EN" "http://www.w3.org/Graphics/SVG/1.1/DTD/svg11.dtd"><svg t="1749638384726" class="icon" viewBox="0 0 1289 1024" version="1.1" xmlns="http://www.w3.org/2000/svg" p-id="21672" xmlns:xlink="http://www.w3.org/1999/xlink" width="251.7578125" height="200"><path d="M607.793548 518.606452c26.425806-13.212903 49.548387-29.729032 69.367742-49.548387 49.548387-49.548387 79.277419-118.916129 79.277419-191.587097 0-75.974194-29.729032-142.03871-79.277419-191.587097-49.548387-49.548387-115.612903-79.277419-191.587097-79.277419-75.974194 0-142.03871 29.729032-191.587097 79.277419C244.43871 132.129032 214.709677 201.496774 214.709677 277.470968c0 75.974194 29.729032 142.03871 79.277419 191.587097 19.819355 19.819355 42.941935 36.335484 69.367742 49.548387-82.580645 23.122581-158.554839 66.064516-218.012903 125.522581-85.883871 85.883871-142.03871 208.103226-142.03871 340.232258 0 0 0 3.303226 0 3.303226 0 16.516129 16.516129 29.729032 29.729032 29.729032 16.516129 0 29.729032-13.212903 29.729032-29.729032l0 0 0 0c0 0 0-3.303226 0-3.303226 0-115.612903 46.245161-218.012903 122.219355-293.987097 75.974194-75.974194 181.677419-122.219355 297.290323-122.219355 115.612903 0 221.316129 46.245161 297.290323 122.219355 75.974194 75.974194 122.219355 178.374194 122.219355 293.987097 0 0 0 3.303226 0 3.303226 0 16.516129 13.212903 29.729032 29.729032 29.729032 16.516129 0 29.729032-13.212903 29.729032-29.729032l0 0c0 0 0-3.303226 0-3.303226 0-132.129032-52.851613-254.348387-142.03871-340.232258C766.348387 584.670968 690.374194 541.729032 607.793548 518.606452L607.793548 518.606452zM336.929032 422.812903C297.290323 386.477419 274.167742 333.625806 274.167742 277.470968 274.167742 221.316129 297.290323 168.464516 336.929032 132.129032c36.335484-36.335484 89.187097-62.76129 148.645161-62.76129 59.458065 0 112.309677 23.122581 148.645161 62.76129C670.554839 168.464516 693.677419 221.316129 693.677419 277.470968c0 56.154839-23.122581 109.006452-59.458065 145.341935-36.335484 36.335484-89.187097 62.76129-148.645161 62.76129C426.116129 485.574194 373.264516 462.451613 336.929032 422.812903L336.929032 422.812903zM1142.916129 647.432258C1090.064516 591.277419 1024 551.63871 948.025806 528.516129c16.516129-9.909677 33.032258-23.122581 46.245161-36.335484 49.548387-49.548387 79.277419-115.612903 79.277419-191.587097 0-75.974194-29.729032-142.03871-79.277419-191.587097-49.548387-49.548387-115.612903-79.277419-188.283871-79.277419-16.516129 0-29.729032 13.212903-29.729032 33.032258 0 16.516129 13.212903 33.032258 29.729032 33.032258 59.458065 0 109.006452 23.122581 148.645161 62.76129C990.967742 188.283871 1014.090323 241.135484 1014.090323 297.290323c0 56.154839-23.122581 109.006452-59.458065 145.341935-33.032258 33.032258-79.277419 56.154839-128.825806 62.76129-6.606452 0-9.909677 0-16.516129 0-16.516129 0-29.729032 13.212903-29.729032 33.032258l0 0 0 0 0 0c0 16.516129 13.212903 33.032258 29.729032 33.032258 6.606452 0 13.212903 0 16.516129 0 109.006452 6.606452 204.8 49.548387 277.470968 122.219355 75.974194 75.974194 122.219355 178.374194 122.219355 293.987097 0 16.516129 13.212903 33.032258 29.729032 33.032258 16.516129 0 29.729032-13.212903 29.729032-33.032258C1284.954839 852.232258 1232.103226 733.316129 1142.916129 647.432258L1142.916129 647.432258z" p-id="21673"></path></svg>