<?xml version="1.0" standalone="no"?><!DOCTYPE svg PUBLIC "-//W3C//DTD SVG 1.1//EN" "http://www.w3.org/Graphics/SVG/1.1/DTD/svg11.dtd"><svg t="1749638339481" class="icon" viewBox="0 0 1024 1024" version="1.1" xmlns="http://www.w3.org/2000/svg" p-id="18715" xmlns:xlink="http://www.w3.org/1999/xlink" width="200" height="200"><path d="M691.712 659.968c-6.656 0-12.8-3.072-17.92-7.68-5.632-5.12-8.704-12.288-8.704-18.432V473.088c0-6.656 3.072-13.312 8.704-18.944 5.632-5.12 12.8-7.68 21.504-7.68s15.36 3.072 21.504 7.68c5.632 4.608 8.704 11.776 8.704 18.944v126.976h126.976c7.168 0 13.312 3.072 18.944 8.704 5.12 5.632 7.68 12.8 7.68 21.504 0 8.192-3.072 15.36-7.68 21.504-4.608 5.632-11.776 8.704-18.944 8.704l-160.768-0.512zM82.432 162.816c-12.288 0-23.04-4.096-31.232-11.776-8.192-7.168-12.8-16.384-12.8-26.624s4.096-19.456 12.8-26.624 19.968-11.776 31.232-11.776h811.008c12.288 0 23.04 4.096 31.232 11.776s12.8 16.384 12.8 26.624-4.096 19.456-12.8 26.624c-8.192 7.168-19.968 11.776-31.232 11.776H82.432z" p-id="18716"></path><path d="M680.448 937.472c-167.936 0-304.64-136.704-304.64-304.64s136.704-304.64 304.64-304.64 304.64 136.704 304.64 304.64-136.704 304.64-304.64 304.64z m0-538.624c-129.024 0-233.984 104.96-233.984 233.984s104.96 233.984 233.984 233.984 233.984-104.96 233.984-233.984-104.96-233.984-233.984-233.984zM78.848 889.344c-9.216 0-17.92-4.096-24.064-11.776-6.144-7.168-10.24-16.896-10.24-27.136s3.584-19.968 10.24-27.136c6.144-7.168 14.848-11.776 24.064-11.776h222.208c9.216 0 17.92 4.096 24.064 11.776 6.144 7.168 10.24 16.896 10.24 27.136s-3.584 19.968-10.24 27.136-14.848 11.776-24.064 11.776H78.848zM78.848 528.896c-9.216 0-17.92-4.096-24.064-11.776-6.144-7.168-10.24-16.896-10.24-27.136s3.584-19.968 10.24-27.136c6.144-7.168 14.848-11.776 24.064-11.776h222.208c9.216 0 17.92 4.096 24.064 11.776 6.144 7.168 10.24 16.896 10.24 27.136s-3.584 19.968-10.24 27.136-14.848 11.776-24.064 11.776H78.848z" p-id="18717"></path></svg>