<?xml version="1.0" standalone="no"?><!DOCTYPE svg PUBLIC "-//W3C//DTD SVG 1.1//EN" "http://www.w3.org/Graphics/SVG/1.1/DTD/svg11.dtd"><svg t="1749638275629" class="icon" viewBox="0 0 1024 1024" version="1.1" xmlns="http://www.w3.org/2000/svg" p-id="15720" xmlns:xlink="http://www.w3.org/1999/xlink" width="200" height="200"><path d="M512 960c247.424 0 448-200.576 448-448S759.424 64 512 64 64 264.576 64 512s200.576 448 448 448z m0 64C229.216 1024 0 794.784 0 512S229.216 0 512 0s512 229.216 512 512-229.216 512-512 512z m273.376-720.096a33.152 33.152 0 0 0-46.304 1.92l-323.808 343.68-177.952-161.024a33.056 33.056 0 0 0-46.272 1.888 32 32 0 0 0 1.632 45.632l201.92 182.912c13.216 12.096 33.92 11.2 46.272-1.92l346.176-367.456a31.968 31.968 0 0 0-1.664-45.632z" fill="#04C757" p-id="15721"></path></svg>