<?xml version="1.0" standalone="no"?><!DOCTYPE svg PUBLIC "-//W3C//DTD SVG 1.1//EN" "http://www.w3.org/Graphics/SVG/1.1/DTD/svg11.dtd"><svg t="1749638332461" class="icon" viewBox="0 0 1024 1024" version="1.1" xmlns="http://www.w3.org/2000/svg" p-id="18555" xmlns:xlink="http://www.w3.org/1999/xlink" width="200" height="200"><path d="M944.1 927.1H81.3c-9.1 0-16.5 7.4-16.5 16.5s7.4 16.5 16.5 16.5h862.8c9.1 0 16.5-7.4 16.5-16.5s-7.4-16.5-16.5-16.5zM433.5 461.8c-5.4-3.1-11.8-3.1-17.2 0-5.4 3.1-8.6 8.7-8.6 14.9v203.7c0 6.2 3.2 11.8 8.6 14.9 2.7 1.6 5.6 2.3 8.6 2.3s5.9-0.8 8.6-2.3l176.4-101.8c5.4-3.1 8.6-8.7 8.6-14.9s-3.2-11.8-8.6-14.9L433.5 461.8z m-5.8 213.7V481.6l167.9 97-167.9 96.9zM724.1 214c-5.5 0-10 4.5-10 10v75.9c0 3.8 2.1 7.3 5.5 8.9l75.9 38c1.4 0.7 3 1.1 4.5 1.1 3.7 0 7.2-2 9-5.5 2.5-4.9 0.5-10.9-4.5-13.4l-70.4-35.2V224c0-5.5-4.5-10-10-10z" fill="#333333" p-id="18556"></path><path d="M158.9 887.6h707.5c26.4 0 47.8-21.8 47.8-48.7V526.5c0-9.1-7.4-16.5-16.5-16.5s-16.5 7.4-16.5 16.5v312.4c0 8.6-6.6 15.7-14.8 15.7H158.9c-8.2 0-14.8-7-14.8-15.7V305.2c0-8.6 6.6-15.7 14.8-15.7h280.8c9.1 0 16.5-7.4 16.5-16.5s-7.4-16.5-16.5-16.5H158.9c-26.4 0-47.8 21.8-47.8 48.7v533.7c0 26.8 21.5 48.7 47.8 48.7z" fill="#333333" p-id="18557"></path><path d="M478.6 237.2l22.3-10.5c-7.6 23.5-11.5 48-11.5 72.8 0 62.7 24.4 121.7 68.8 166.1s103.4 68.8 166.1 68.8S846 510 890.4 465.6c44.4-44.4 68.8-103.4 68.8-166.1s-24.4-121.7-68.8-166.1C846 89 787 64.6 724.3 64.6c-46.5 0-91.5 13.6-130.1 39.3-3.9 2.6-7.7 5.3-11.4 8.1-7.3 5.5-8.7 15.8-3.2 23.1 5.5 7.3 15.8 8.7 23.1 3.2 3.2-2.4 6.5-4.7 9.8-6.9 33.1-22.1 71.8-33.7 111.8-33.7 111.3 0 201.9 90.6 201.9 201.9s-90.6 201.9-201.9 201.9-201.9-90.6-201.9-201.9c0-21.7 3.4-43.1 10.2-63.5 0.2-0.5 0.3-0.9 0.4-1.4l12.5 26.5c2.8 6 8.7 9.5 14.9 9.5 2.4 0 4.8-0.5 7-1.6 8.2-3.9 11.8-13.7 7.9-22l-28.5-60.4c-1.9-4-5.2-7-9.3-8.5s-8.7-1.3-12.6 0.6l-60.4 28.5c-8.2 3.9-11.8 13.7-7.9 22 3.9 8.3 13.8 11.8 22 7.9z m45.6-21.1c-0.1-0.1-0.3-0.1-0.4-0.2l0.3-0.1 0.1 0.3z" fill="#333333" p-id="18558"></path></svg>