<?xml version="1.0" standalone="no"?><!DOCTYPE svg PUBLIC "-//W3C//DTD SVG 1.1//EN" "http://www.w3.org/Graphics/SVG/1.1/DTD/svg11.dtd"><svg t="1749638505368" class="icon" viewBox="0 0 1024 1024" version="1.1" xmlns="http://www.w3.org/2000/svg" p-id="7632" xmlns:xlink="http://www.w3.org/1999/xlink" width="200" height="200"><path d="M684.544 842.24H201.728c-56.832 0-103.424-44.544-103.424-99.328V148.48c0-54.784 46.592-99.328 103.424-99.328h482.816c56.832 0 103.424 44.544 103.424 99.328v594.944c0 54.784-46.592 98.816-103.424 98.816z m-482.816-727.04c-18.944 0-34.304 14.848-34.304 33.28v594.944c0 18.432 15.36 33.28 34.304 33.28h482.816c18.944 0 34.304-14.848 34.304-33.28V148.48c0-18.432-15.36-33.28-34.304-33.28H201.728z m620.544 859.648h-517.12c-18.944 0-34.304-14.848-34.304-33.28s15.36-33.28 34.304-33.28h517.632c18.944 0 34.304-14.848 34.304-33.28V247.808c0-18.432 15.36-33.28 34.304-33.28s34.304 14.848 34.304 33.28V875.52c0 54.784-46.08 99.328-103.424 99.328zM546.304 313.856H270.336c-18.944 0-34.304-14.848-34.304-33.28s15.36-33.28 34.304-33.28h275.968c18.944 0 34.304 14.848 34.304 33.28 0.512 18.432-14.848 33.28-34.304 33.28z m69.12 164.864H270.336c-18.944 0-34.304-14.848-34.304-33.28s15.36-33.28 34.304-33.28h345.088c18.944 0 34.304 14.848 34.304 33.28 0 18.944-15.36 33.28-34.304 33.28z m0 165.376H270.336c-18.944 0-34.304-14.848-34.304-33.28s15.36-33.28 34.304-33.28h345.088c18.944 0 34.304 14.848 34.304 33.28s-15.36 33.28-34.304 33.28z" fill="" p-id="7633"></path></svg>