<?xml version="1.0" standalone="no"?><!DOCTYPE svg PUBLIC "-//W3C//DTD SVG 1.1//EN" "http://www.w3.org/Graphics/SVG/1.1/DTD/svg11.dtd"><svg t="1749638490447" class="icon" viewBox="0 0 1024 1024" version="1.1" xmlns="http://www.w3.org/2000/svg" p-id="6614" xmlns:xlink="http://www.w3.org/1999/xlink" width="200" height="200"><path d="M1009.098909 790.372143L864.230449 641.255771v-190.423659A367.078221 367.078221 0 0 0 650.223553 116.272393a140.620548 140.620548 0 0 0-276.993183 0A367.224701 367.224701 0 0 0 159.516434 451.418031v190.423659L14.647974 790.372143a52.000307 52.000307 0 0 0 0.878878 73.239869 48.045354 48.045354 0 0 0 35.008657 14.647974h260.733932a210.930822 210.930822 0 0 0 401.208001 0h260.880411a48.484793 48.484793 0 0 0 35.155137-14.647974 52.146786 52.146786 0 0 0 0.585919-73.239869zM512.67908 74.232708a70.896193 70.896193 0 0 1 42.918563 14.647974A394.176973 394.176973 0 0 0 512.67908 85.804607h-2.490155a380.847317 380.847317 0 0 0-41.453766 3.076075 69.431395 69.431395 0 0 1 43.943921-14.647974z m0 876.388268a141.059987 141.059987 0 0 1-122.896499-73.239869h244.91412a141.206467 141.206467 0 0 1-122.896499 73.239869z m373.66981-145.747339h-747.04666a15.966291 15.966291 0 0 1-10.98598-27.098751l105.318931-107.076688v-221.184403c0-158.637555 125.240175-288.858042 279.190379-290.762278C665.750405 161.388152 790.990581 290.876239 790.990581 449.513795v221.037923l105.46541 107.076688a16.112771 16.112771 0 0 1-10.8395 27.245231z" fill="#333333" p-id="6615"></path></svg>