<?xml version="1.0" standalone="no"?><!DOCTYPE svg PUBLIC "-//W3C//DTD SVG 1.1//EN" "http://www.w3.org/Graphics/SVG/1.1/DTD/svg11.dtd"><svg t="1749638357253" class="icon" viewBox="0 0 1024 1024" version="1.1" xmlns="http://www.w3.org/2000/svg" p-id="20160" xmlns:xlink="http://www.w3.org/1999/xlink" width="200" height="200"><path d="M682.65984 733.85984V580.27008h51.2V716.8h102.4v51.2h-153.6v-34.14016z m332.8 0h-51.2a8.5504 8.5504 0 0 1-8.54016-8.52992V716.8h-0.41984c-4.51584-123.26912-105.59488-221.87008-229.95968-221.87008-127.26272 0-230.4 103.14752-230.4 230.4 0 127.26272 103.14752 230.41024 230.4 230.41024 54.91712 0 105.02144-19.5584 144.57856-51.70176L768 802.12992h204.8v204.8l-54.41536-54.40512C866.32448 996.90496 799.11936 1024 725.34016 1024c-164.95616 0-298.67008-133.72416-298.67008-298.67008s133.71392-298.65984 298.67008-298.65984c157.6448 0 286.09536 122.3168 297.19552 277.12512a8.2432 8.2432 0 0 1 1.46432 4.47488v17.05984c0 4.7104-3.81952 8.52992-8.54016 8.52992zM171.22304 307.2v-51.2h579.69664v51.2H171.22304z m-0.5632 409.6h204.8v51.2h-204.8v-51.2z m0.5632-229.21216h225.01376v51.2H171.22304v-51.2zM853.34016 102.4A34.1504 34.1504 0 0 0 819.2 68.25984H102.4A34.14016 34.14016 0 0 0 68.25984 102.4v785.05984A34.14016 34.14016 0 0 0 102.4 921.6h333.30176a350.68928 350.68928 0 0 0 61.09184 68.2496H76.8A76.77952 76.77952 0 0 1 0 913.07008V76.8C0 34.37568 34.37568 0 76.8 0h768A76.8 76.8 0 0 1 921.6 76.8v358.90176a348.76416 348.76416 0 0 0-68.25984-35.7376V102.4z" p-id="20161"></path></svg>