<?xml version="1.0" standalone="no"?><!DOCTYPE svg PUBLIC "-//W3C//DTD SVG 1.1//EN" "http://www.w3.org/Graphics/SVG/1.1/DTD/svg11.dtd"><svg t="1749638375158" class="icon" viewBox="0 0 1024 1024" version="1.1" xmlns="http://www.w3.org/2000/svg" p-id="20524" xmlns:xlink="http://www.w3.org/1999/xlink" width="200" height="200"><path d="M746.666667 874.666667H277.333333c-83.2 0-149.333333-66.133333-149.333333-149.333334V341.333333c0-83.2 66.133333-149.333333 149.333333-149.333333h469.333334c83.2 0 149.333333 66.133333 149.333333 149.333333v384c0 83.2-66.133333 149.333333-149.333333 149.333334zM277.333333 234.666667c-59.733333 0-106.666667 46.933333-106.666666 106.666666v384c0 59.733333 46.933333 106.666667 106.666666 106.666667h469.333334c59.733333 0 106.666667-46.933333 106.666666-106.666667V341.333333c0-59.733333-46.933333-106.666667-106.666666-106.666666H277.333333z" fill="#333333" p-id="20525"></path><path d="M467.2 627.2l196.266667-196.266667c8.533333-8.533333 21.333333-8.533333 29.866666 0 8.533333 8.533333 8.533333 21.333333 0 29.866667l-211.2 211.2c-8.533333 8.533333-21.333333 8.533333-29.866666 0l-121.6-121.6c-8.533333-8.533333-8.533333-21.333333 0-29.866667s21.333333-8.533333 29.866666 0l106.666667 106.666667zM362.666667 298.666667c-12.8 0-21.333333-8.533333-21.333334-21.333334V149.333333c0-12.8 8.533333-21.333333 21.333334-21.333333s21.333333 8.533333 21.333333 21.333333v128c0 12.8-8.533333 21.333333-21.333333 21.333334zM661.333333 298.666667c-12.8 0-21.333333-8.533333-21.333333-21.333334V149.333333c0-12.8 8.533333-21.333333 21.333333-21.333333s21.333333 8.533333 21.333334 21.333333v128c0 12.8-8.533333 21.333333-21.333334 21.333334z" fill="#333333" p-id="20526"></path></svg>