<?xml version="1.0" standalone="no"?><!DOCTYPE svg PUBLIC "-//W3C//DTD SVG 1.1//EN" "http://www.w3.org/Graphics/SVG/1.1/DTD/svg11.dtd"><svg t="1749638379839" class="icon" viewBox="0 0 1024 1024" version="1.1" xmlns="http://www.w3.org/2000/svg" p-id="21514" xmlns:xlink="http://www.w3.org/1999/xlink" width="200" height="200"><path d="M762.007704 217.252346c75.826568 0 135.408198 57.306074 135.408197 130.237629v427.172346c0 72.931556-59.58163 122.424889-135.395555 122.424889H274.507852c-75.826568 0-135.395556-49.493333-135.395556-122.424889V350.094222c0-72.944198 59.568988-130.23763 135.395556-130.237629h86.673383c-5.423407-5.208494-8.12879-10.416988-8.128791-18.229729v-36.472099c0-15.625481 10.834173-26.042469 27.079112-26.042469 16.25758 0 27.091753 10.416988 27.091753 26.042469v36.472099c0 7.812741-2.718025 13.021235-8.12879 18.229729h243.737283c-5.410765-5.208494-8.116148-10.416988-8.116148-18.229729v-36.472099c0-15.625481 10.821531-26.042469 27.079111-26.042469 16.244938 0 27.079111 10.416988 27.079112 26.042469v33.867852c0 7.812741-2.705383 13.021235-8.128791 18.229729h81.249976z m81.249975 156.280098v-26.042469c0-44.28484-35.207901-78.140049-81.249975-78.140049h-487.474568c-46.042074 0-81.249975 33.85521-81.249976 78.127407v26.055111h649.974519zM328.691358 607.965235h-54.170864v52.084938H328.691358v-52.084938z m213.95279 0h-51.452839v52.084938h51.452839v-52.084938z m-105.623704 0h-54.158222v52.084938h54.158222v-52.084938z m324.98726 0h-51.45284v52.084938h51.45284v-52.084938z m-111.034469 0h-51.45284v52.084938h51.45284v-52.084938z m0-130.23763h-51.45284v52.084938h51.45284v-52.084938z m-213.952791 0h-54.158222v52.084938h54.158222v-52.084938z m324.98726 0h-51.45284v52.084938h51.45284v-52.084938z m-219.363556 0h-51.452839v52.084938h51.452839v-52.084938z m111.034469 260.462617h-51.452839v52.09758h51.452839v-52.084938z m-162.487308 52.09758h51.452839v-52.084938h-51.452839v52.084938z m-56.888889-52.084938h-51.45284v52.084938h51.45284v-52.084938z m-105.611062 0h-54.170864v52.084938H328.691358v-52.084938z" fill="#AFAFAF" p-id="21515"></path></svg>