<?xml version="1.0" standalone="no"?><!DOCTYPE svg PUBLIC "-//W3C//DTD SVG 1.1//EN" "http://www.w3.org/Graphics/SVG/1.1/DTD/svg11.dtd"><svg t="1749638307200" class="icon" viewBox="0 0 1024 1024" version="1.1" xmlns="http://www.w3.org/2000/svg" p-id="16510" xmlns:xlink="http://www.w3.org/1999/xlink" width="200" height="200"><path d="M922.984 201.505a46.174 46.174 0 0 0 31.185 12.079c12.707 0 25.368-5.202 34.549-15.43 17.233-19.188 15.743-48.79-3.328-66.118l-60.114-54.62c0-0.013-0.012-0.013-0.012-0.013l-60.428-54.911c-19.072-17.315-48.512-15.826-65.746 3.362-17.233 19.177-15.732 48.78 3.34 66.118l25.577 23.238-46.988 51.817c-53.481-39.89-115.607-68.725-182.994-83.247-1.71-14.603-6.598-31.616-18.431-46.999C567.387 20.91 543.579 1.651 499.535 0.034c-0.628-0.023-1.257-0.047-1.873-0.023-40.797 0.384-64.325 17.827-76.881 32.395-14.243 16.512-20.096 35.678-22.33 51.281-214.12 45.963-375.18 236.88-375.18 464.85 0 262.166 212.98 475.461 474.764 475.461s474.752-213.295 474.752-475.462c0-122.495-46.51-234.298-122.752-318.684l47.046-51.875 25.903 23.528zM498.035 930.372c-210.455 0-381.672-171.288-381.672-381.836S287.58 166.701 498.035 166.701s381.66 171.287 381.66 381.835c0.002 210.548-171.205 381.836-381.66 381.836z m81.455-381.836c0 44.44-36.69 80.454-80.873 80.454S419.2 592.975 419.2 548.536c0-26.95 11.346-50.746 34.618-65.35V294.41c0-25.855 20.84-46.813 46.545-46.813s46.545 20.958 46.545 46.813v188.777c23.274 14.602 32.583 38.4 32.583 65.35z" fill="" p-id="16511"></path></svg>