<?xml version="1.0" standalone="no"?><!DOCTYPE svg PUBLIC "-//W3C//DTD SVG 1.1//EN" "http://www.w3.org/Graphics/SVG/1.1/DTD/svg11.dtd"><svg t="1749638347307" class="icon" viewBox="0 0 1024 1024" version="1.1" xmlns="http://www.w3.org/2000/svg" p-id="19762" xmlns:xlink="http://www.w3.org/1999/xlink" width="200" height="200"><path d="M960 1024h-256a64 64 0 0 1-64-64v-256a64 64 0 0 1 64-64h256a64 64 0 0 1 64 64v256a64 64 0 0 1-64 64z m0-320h-256v256h256v-256z m0-128h-256a64 64 0 0 1-64-64V256a64 64 0 0 1 64-64h256a64 64 0 0 1 64 64v256a64 64 0 0 1-64 64z m0-320h-256v256h256V256zM448 576H128a128 128 0 0 1-128-128V128a128 128 0 0 1 128-128h320a128 128 0 0 1 128 128v320a128 128 0 0 1-128 128z m64-448a64 64 0 0 0-64-64H128a64 64 0 0 0-64 64v320a64 64 0 0 0 64 64h320a64 64 0 0 0 64-64V128z m-256 512h256a64 64 0 0 1 64 64v256a64 64 0 0 1-64 64H256a64 64 0 0 1-64-64v-256a64 64 0 0 1 64-64z m0 320h256v-256H256v256z" fill="#bfbfbf" p-id="19763"></path></svg>